<?xml version="1.0" encoding="UTF-8" standalone="no"?>
<!-- Created with Inkscape (http://www.inkscape.org/) -->

<svg
   xmlns:dc="http://purl.org/dc/elements/1.1/"
   xmlns:cc="http://creativecommons.org/ns#"
   xmlns:rdf="http://www.w3.org/1999/02/22-rdf-syntax-ns#"
   xmlns:svg="http://www.w3.org/2000/svg"
   xmlns="http://www.w3.org/2000/svg"
   xmlns:sodipodi="http://sodipodi.sourceforge.net/DTD/sodipodi-0.dtd"
   xmlns:inkscape="http://www.inkscape.org/namespaces/inkscape"
   version="1.1"
   width="750"
   height="600"
   id="svg2"
   inkscape:version="0.48.2 r9819"
   sodipodi:docname="MO-supp-template2.svg">
  <sodipodi:namedview
     pagecolor="#ffffff"
     bordercolor="#666666"
     borderopacity="1"
     objecttolerance="10"
     gridtolerance="10"
     guidetolerance="10"
     inkscape:pageopacity="0"
     inkscape:pageshadow="2"
     inkscape:window-width="1366"
     inkscape:window-height="706"
     id="namedview3003"
     showgrid="false"
     inkscape:zoom="0.86166667"
     inkscape:cx="375"
     inkscape:cy="357.77804"
     inkscape:window-x="-8"
     inkscape:window-y="-8"
     inkscape:window-maximized="1"
     inkscape:current-layer="svg2" />
  <defs
     id="defs4" />
  <metadata
     id="metadata7">
    <rdf:RDF>
      <cc:Work
         rdf:about="">
        <dc:format>image/svg+xml</dc:format>
        <dc:type
           rdf:resource="http://purl.org/dc/dcmitype/StillImage" />
        <dc:title></dc:title>
      </cc:Work>
    </rdf:RDF>
  </metadata>
  <g
     transform="translate(0,-452.36218)"
     id="layer1">
    <rect
       width="750"
       height="600"
       rx="37.5"
       ry="37.5"
       x="0"
       y="452.36218"
       id="rect2985"
       style="fill:#000000;fill-opacity:1;stroke:none" />
    <rect
       width="600"
       height="450"
       x="75"
       y="527.36218"
       id="rect3755"
       style="fill:#ffffff;fill-opacity:1;fill-rule:nonzero;stroke:none" />
    <g
       style="font-size:443.03796387px;font-style:normal;font-variant:normal;font-weight:normal;font-stretch:normal;text-align:center;line-height:100%;letter-spacing:0px;word-spacing:0px;writing-mode:lr-tb;text-anchor:middle;fill:none;stroke:#000000;stroke-width:3.16455698px;stroke-linecap:butt;stroke-linejoin:miter;stroke-opacity:1;font-family:Roadgeek 2005 Series C;-inkscape-font-specification:Roadgeek 2005 Series C"
       id="text3757">
      <path
         d="m 297.83325,900.77991 -47.84885,-129.36363 -56.25858,0 0,129.36363 -46.97003,0 0,-296.84139 97.91507,0 c 11.51928,3e-4 21.41398,0.66505 29.68414,1.99427 8.26983,1.3298 16.09591,3.77024 23.47825,7.32132 6.49864,3.24519 12.48143,7.4523 17.94839,12.62134 5.46656,5.16958 10.19195,11.07576 14.17619,17.71854 3.9838,6.6433 7.08449,13.73251 9.30207,21.26766 2.21712,7.53562 3.3258,14.9944 3.32603,22.37634 -2.3e-4,7.97727 -1.10891,15.73123 -3.32603,23.26193 -2.21758,7.53107 -5.31827,14.61803 -9.30207,21.2609 -3.98424,6.6432 -8.8561,12.62374 -14.6156,17.94163 -5.75991,5.31818 -12.0379,9.45544 -18.83398,12.41177 l 52.28356,138.66569 z M 295.6159,687.23799 c -1.8e-4,-6.20116 -1.62264,-12.10734 -4.86736,-17.71855 -3.24508,-5.61074 -7.824,-10.04319 -13.73677,-13.29735 -3.83997,-2.06388 -7.38458,-3.4655 -10.63383,-4.20486 -3.24957,-0.73887 -8.71408,-1.10843 -16.39354,-1.10868 l -56.25858,0 0,72.65888 56.25858,0 c 7.39103,1.7e-4 12.78343,-0.29502 16.17721,-0.88559 3.39347,-0.59022 7.01019,-1.92198 10.85016,-3.9953 5.91277,-3.24472 10.49169,-7.74702 13.73677,-13.50692 3.24472,-5.75951 4.86718,-11.74005 4.86736,-17.94163 z"
         style="line-height:100%;fill:#000000;fill-opacity:1;stroke:none;font-family:Roadgeek 2005 Series D;-inkscape-font-specification:Roadgeek 2005 Series D"
         id="path3006" />
      <path
         d="m 600.59659,751.9198 c -2.4e-4,29.83524 -4.50479,56.0491 -13.51368,78.64167 -9.00934,22.59271 -21.93262,40.38786 -38.76988,53.38548 -5.61567,5.31806 -12.18886,9.30433 -19.71957,11.95884 -7.53105,2.65451 -15.13629,4.27922 -22.81575,4.87412 l -16.83296,0 -90.38418,0 0,-296.84139 95.69772,0 c 7.39103,3e-4 13.81775,0.22339 19.28015,0.66926 5.46211,0.44647 10.40833,1.25995 14.83869,2.44044 4.43003,1.18108 8.4163,2.80579 11.95883,4.87413 3.54218,2.06891 7.38198,4.57695 11.51942,7.52412 15.65648,13.59283 27.69417,31.68542 36.11312,54.27783 8.41849,22.59287 12.62785,48.65801 12.62809,78.1955 z m -47.84886,0 c -1.9e-4,-20.0822 -2.14317,-37.9517 -6.42897,-53.60857 -4.28616,-15.65645 -10.12022,-27.32459 -17.50221,-35.00443 -3.83997,-3.54212 -8.27017,-6.49408 -13.2906,-8.85589 -5.02074,-2.36133 -10.63172,-3.54211 -16.83296,-3.54236 l -53.16239,0 0,202.0225 46.95651,0 c 7.67947,5e-5 14.10393,-0.88554 19.27339,-2.65677 5.16917,-1.77112 9.82245,-4.72534 13.95986,-8.86265 8.86023,-8.86033 15.57989,-21.04449 20.15899,-36.55252 4.57873,-15.50784 6.86819,-33.15426 6.86838,-52.93931 z"
         style="line-height:100%;fill:#000000;fill-opacity:1;stroke:none;font-family:Roadgeek 2005 Series D;-inkscape-font-specification:Roadgeek 2005 Series D"
         id="path3008" />
    </g>
  </g>
</svg>
